<?xml version="1.0" encoding="UTF-8" ?>
<svg version="1.1" width="18" height="18" xmlns="http://www.w3.org/2000/svg" shape-rendering="crispEdges">
<rect x="1" y="0" width="3" height="1" fill="#050403" />
<rect x="9" y="0" width="3" height="1" fill="#050403" />
<rect x="1" y="1" width="1" height="8" fill="#050403" />
<rect x="2" y="1" width="2" height="1" fill="#323232" />
<rect x="4" y="1" width="5" height="1" fill="#050403" />
<rect x="9" y="1" width="2" height="1" fill="#323232" />
<rect x="11" y="1" width="1" height="8" fill="#050403" />
<rect x="2" y="2" width="2" height="1" fill="#171516" />
<rect x="4" y="2" width="5" height="4" fill="#323232" />
<rect x="9" y="2" width="2" height="1" fill="#171516" />
<rect x="2" y="3" width="1" height="1" fill="#171516" />
<rect x="3" y="3" width="1" height="6" fill="#323232" />
<rect x="9" y="3" width="1" height="6" fill="#323232" />
<rect x="10" y="3" width="1" height="1" fill="#171516" />
<rect x="2" y="4" width="1" height="4" fill="#323232" />
<rect x="10" y="4" width="1" height="4" fill="#323232" />
<rect x="0" y="6" width="1" height="1" fill="#050403" />
<rect x="4" y="6" width="1" height="1" fill="#E88A36" />
<rect x="5" y="6" width="3" height="2" fill="#323232" />
<rect x="8" y="6" width="1" height="1" fill="#E88A36" />
<rect x="12" y="6" width="1" height="1" fill="#050403" />
<rect x="4" y="7" width="1" height="1" fill="#F8C53A" />
<rect x="8" y="7" width="1" height="1" fill="#F8C53A" />
<rect x="0" y="8" width="1" height="1" fill="#050403" />
<rect x="2" y="8" width="1" height="1" fill="#171516" />
<rect x="4" y="8" width="2" height="6" fill="#323232" />
<rect x="6" y="8" width="1" height="1" fill="#171516" />
<rect x="7" y="8" width="2" height="6" fill="#323232" />
<rect x="10" y="8" width="1" height="1" fill="#171516" />
<rect x="12" y="8" width="1" height="1" fill="#050403" />
<rect x="2" y="9" width="1" height="1" fill="#050403" />
<rect x="3" y="9" width="1" height="1" fill="#171516" />
<rect x="6" y="9" width="1" height="7" fill="#323232" />
<rect x="9" y="9" width="1" height="1" fill="#171516" />
<rect x="10" y="9" width="1" height="1" fill="#050403" />
<rect x="1" y="10" width="1" height="2" fill="#050403" />
<rect x="2" y="10" width="2" height="4" fill="#323232" />
<rect x="9" y="10" width="2" height="4" fill="#323232" />
<rect x="11" y="10" width="1" height="2" fill="#050403" />
<rect x="15" y="10" width="2" height="1" fill="#050403" />
<rect x="14" y="11" width="1" height="3" fill="#050403" />
<rect x="15" y="11" width="2" height="4" fill="#323232" />
<rect x="17" y="11" width="1" height="4" fill="#050403" />
<rect x="0" y="12" width="1" height="4" fill="#050403" />
<rect x="1" y="12" width="1" height="4" fill="#171516" />
<rect x="11" y="12" width="1" height="3" fill="#323232" />
<rect x="12" y="12" width="1" height="4" fill="#050403" />
<rect x="2" y="14" width="1" height="2" fill="#050403" />
<rect x="3" y="14" width="2" height="1" fill="#323232" />
<rect x="5" y="14" width="1" height="4" fill="#050403" />
<rect x="7" y="14" width="1" height="4" fill="#050403" />
<rect x="8" y="14" width="2" height="1" fill="#323232" />
<rect x="10" y="14" width="1" height="2" fill="#050403" />
<rect x="13" y="14" width="1" height="1" fill="#050403" />
<rect x="14" y="14" width="1" height="2" fill="#323232" />
<rect x="3" y="15" width="1" height="1" fill="#171516" />
<rect x="4" y="15" width="1" height="1" fill="#323232" />
<rect x="8" y="15" width="1" height="1" fill="#323232" />
<rect x="9" y="15" width="1" height="1" fill="#171516" />
<rect x="11" y="15" width="1" height="1" fill="#171516" />
<rect x="13" y="15" width="1" height="2" fill="#171516" />
<rect x="15" y="15" width="1" height="1" fill="#323232" />
<rect x="16" y="15" width="1" height="1" fill="#050403" />
<rect x="1" y="16" width="1" height="1" fill="#050403" />
<rect x="2" y="16" width="1" height="1" fill="#171516" />
<rect x="3" y="16" width="1" height="2" fill="#050403" />
<rect x="4" y="16" width="1" height="1" fill="#171516" />
<rect x="6" y="16" width="1" height="1" fill="#171516" />
<rect x="8" y="16" width="1" height="1" fill="#171516" />
<rect x="9" y="16" width="1" height="2" fill="#050403" />
<rect x="10" y="16" width="1" height="1" fill="#171516" />
<rect x="11" y="16" width="1" height="2" fill="#050403" />
<rect x="12" y="16" width="1" height="1" fill="#171516" />
<rect x="14" y="16" width="1" height="1" fill="#171516" />
<rect x="15" y="16" width="1" height="1" fill="#050403" />
<rect x="2" y="17" width="1" height="1" fill="#050403" />
<rect x="4" y="17" width="1" height="1" fill="#050403" />
<rect x="6" y="17" width="1" height="1" fill="#050403" />
<rect x="8" y="17" width="1" height="1" fill="#050403" />
<rect x="10" y="17" width="1" height="1" fill="#050403" />
<rect x="12" y="17" width="3" height="1" fill="#050403" />
</svg>